# xmcd CD database file
#
# Track frame offsets:
#	150
#	14394
#	27526
#	42094
#	55785
#	67896
#	82819
#	96895
#	109654
#	122704
#	136186
#	148479
#	160687
#	173412
#	183990
#	197547
#	209829
#	220534
#	231956
#	243579
#	256137
#	269485
#	280977
#	294671
#	307909
#
# Disc length: 4247 seconds
#
# Revision: 0
# Processed by: cddbd v1.5.1PL2 Copyright (c) Steve Scherf et al.
# Submitted via: CDex 1.50
#
DISCID=67109519
DTITLE=Charles Brown - Trouble Blues -TBO
DYEAR=2000
DGENRE=Blues
TTITLE0=Pasadena
TTITLE1=Tonight I'm Alone
TTITLE2=Driftin' Blues
TTITLE3=Race Track Blues
TTITLE4=Rocks In My Bed
TTITLE5=So Long
TTITLE6=You Won't Let Me Go
TTITLE7=More Than You Know
TTITLE8=Sail On Blues
TTITLE9=Blue Because I Love You
TTITLE10=When Your Love Has Gone
TTITLE11=Sunny Road
TTITLE12=Bobby Sox Blues
TTITLE13=Juke Box Lil
TTITLE14=Changeable Woman Blues
TTITLE15=Merry Christmas Blues
TTITLE16=Don't Get Sally Sugar
TTITLE17=Money's Getting Cheaper
TTITLE18=Groovy Movie Blues
TTITLE19=Snuff Dippin' Mama
TTITLE20=B&O Blues
TTITLE21=My Last Affair
TTITLE22=Get Yourself Another Fool
TTITLE23=In The Evening
TTITLE24=Trouble Blues
EXTD=YEAR: 2000
EXTT0=
EXTT1=
EXTT2=
EXTT3=
EXTT4=
EXTT5=
EXTT6=
EXTT7=
EXTT8=
EXTT9=
EXTT10=
EXTT11=
EXTT12=
EXTT13=
EXTT14=
EXTT15=
EXTT16=
EXTT17=
EXTT18=
EXTT19=
EXTT20=
EXTT21=
EXTT22=
EXTT23=
EXTT24=
PLAYORDER=
